#tb 0: 1/25
#media_type 0: video
#codec_id 0: rawvideo
#dimensions 0: 768x576
#sar 0: 0/1
0,          0,          0,        1,   884736, 0x22304315
0,          1,          1,        1,   884736, 0x896fcaf0
0,          2,          2,        1,   884736, 0x2e25b031
0,          3,          3,        1,   884736, 0x9d0cdf84
0,          4,          4,        1,   884736, 0x90c799b6
0,          5,          5,        1,   884736, 0x80ac6b03
0,          6,          6,        1,   884736, 0x46cfbd02
0,          7,          7,        1,   884736, 0xee2b4bdb
0,          8,          8,        1,   884736, 0x7876581e
0,          9,          9,        1,   884736, 0x19490d15
0,         10,         10,        1,   884736, 0x6c37db8d
0,         11,         11,        1,   884736, 0xe6a198ae
0,         12,         12,        1,   884736, 0x893d08af
0,         13,         13,        1,   884736, 0xb52bd038
0,         14,         14,        1,   884736, 0x7074bb1b
0,         15,         15,        1,   884736, 0xd32ed044
0,         16,         16,        1,   884736, 0x9592d482
0,         17,         17,        1,   884736, 0x9fcd144b
0,         18,         18,        1,   884736, 0xba1c73a2
0,         19,         19,        1,   884736, 0x5fd7c0e7
0,         20,         20,        1,   884736, 0xc3f05ed4
0,         21,         21,        1,   884736, 0x333d0e9c
0,         22,         22,        1,   884736, 0x9063fd20
0,         23,         23,        1,   884736, 0xc4508928
0,         24,         24,        1,   884736, 0x1428b800
